<svg id="Layer_1" data-name="Layer 1" xmlns="http://www.w3.org/2000/svg" viewBox="0 0 528.29 125.32"><defs><style>.cls-1{fill:#f32735;}.cls-2{fill:#fff;}.cls-3,.cls-4{fill:#414042;}.cls-3{fill-rule:evenodd;}</style></defs><path class="cls-1" d="M25.12,31.91A6.85,6.85,0,0,1,32,25.06h61.5a6.85,6.85,0,0,1,6.85,6.85v61.5a6.85,6.85,0,0,1-6.85,6.85H32a6.85,6.85,0,0,1-6.85-6.85V31.91Z"/><path class="cls-2" d="M84.57,63.36a26.69,26.69,0,0,1-53.35,0h1.32a20.57,20.57,0,0,0,41.13,0Zm12.39,0a34.25,34.25,0,0,1-68.48,0h1.4a28.06,28.06,0,0,0,56.1,0Zm-24.68,0a19.2,19.2,0,0,1-38.39,0h1.42c0,.15,0,.31,0,.47a13.72,13.72,0,1,0,27.44,0c0-.16,0-.32,0-.47ZM53.16,62a19.2,19.2,0,0,1,38.39,0H90.13c0-.16,0-.32,0-.48a13.72,13.72,0,0,0-27.44,0c0,.16,0,.32,0,.48ZM28.48,62A34.25,34.25,0,0,1,97,62h-1.4a28.06,28.06,0,0,0-56.1,0Zm12.39,0a26.69,26.69,0,0,1,53.36,0H92.9a20.57,20.57,0,0,0-41.13,0Z"/><path class="cls-3" d="M119.74,55.25c0,3,.71,5.26,2.11,6.84a6.9,6.9,0,0,0,10.41,0c1.4-1.58,2.09-3.88,2.09-6.9s-.69-5.19-2.09-6.78a6.9,6.9,0,0,0-10.41,0C120.45,50,119.74,52.28,119.74,55.25Zm-8.14-.42a16.35,16.35,0,0,1,1.94-7.66,13.38,13.38,0,0,1,5.52-5.65,16.29,16.29,0,0,1,8-2A14.94,14.94,0,0,1,138.16,44a15.31,15.31,0,0,1,4.34,11.18,15.43,15.43,0,0,1-4.39,11.28,14.77,14.77,0,0,1-11,4.48,17.44,17.44,0,0,1-7.86-1.86,12.84,12.84,0,0,1-5.68-5.47A18.3,18.3,0,0,1,111.6,54.83Z"/><polygon class="cls-3" points="145.58 70.18 145.58 28.83 153.49 28.83 153.49 50.76 162.76 40.21 172.52 40.21 162.3 51.16 173.27 70.18 164.73 70.18 157.16 56.66 153.49 60.59 153.49 70.18 145.58 70.18"/><path class="cls-3" d="M175.14,70.18v-30h7.91v30Zm0-34V28.83h7.91v7.33Z"/><path class="cls-3" d="M202.11,54.73c0,3.38.67,5.87,2,7.49A6.1,6.1,0,0,0,209,64.64a5.69,5.69,0,0,0,4.59-2.23q1.81-2.22,1.82-7.29c0-3.15-.62-5.49-1.88-7a5.82,5.82,0,0,0-4.67-2.29A6.06,6.06,0,0,0,204,48.06Q202.12,50.31,202.11,54.73Zm-7.8-14.52h7.4v4.4a11,11,0,0,1,9.33-5,11.43,11.43,0,0,1,8.86,4.1q3.63,4.09,3.64,11.41,0,7.52-3.67,11.69A11.45,11.45,0,0,1,211,70.93a10.25,10.25,0,0,1-4.51-1,15.17,15.17,0,0,1-4.24-3.39v15h-7.92Z"/><path class="cls-3" d="M246.78,70.18V65.7a12.24,12.24,0,0,1-9.95,5.23,11,11,0,0,1-5.43-1.33,7.86,7.86,0,0,1-3.48-3.73,16.79,16.79,0,0,1-1.07-6.65v-19h7.91V54q0,6.33.44,7.76A4.22,4.22,0,0,0,236.8,64a4.89,4.89,0,0,0,2.94.84,6.26,6.26,0,0,0,3.66-1.12A5.65,5.65,0,0,0,245.6,61q.6-1.65.6-8.1V40.21h7.91v30Z"/><rect class="cls-4" x="259.39" y="28.83" width="7.91" height="41.35"/><path class="cls-3" d="M280.08,54.73c0,3.38.67,5.87,2,7.49A6.11,6.11,0,0,0,287,64.64a5.69,5.69,0,0,0,4.59-2.23q1.83-2.22,1.83-7.29,0-4.73-1.89-7a5.81,5.81,0,0,0-4.67-2.29A6,6,0,0,0,282,48.06Q280.08,50.31,280.08,54.73Zm-7.79-14.52h7.39v4.4a11,11,0,0,1,9.33-5,11.42,11.42,0,0,1,8.86,4.1q3.64,4.09,3.64,11.41,0,7.52-3.67,11.69A11.45,11.45,0,0,1,289,70.93a10.18,10.18,0,0,1-4.5-1,15.06,15.06,0,0,1-4.25-3.39v15h-7.91Z"/><path class="cls-3" d="M369,54.73c0,3.38.67,5.87,2,7.49a6.11,6.11,0,0,0,4.87,2.42,5.69,5.69,0,0,0,4.59-2.23q1.83-2.22,1.83-7.29,0-4.73-1.89-7a5.81,5.81,0,0,0-4.67-2.29A6,6,0,0,0,371,48.06Q369,50.31,369,54.73Zm-7.79-14.52h7.39v4.4a11,11,0,0,1,9.34-5,11.41,11.41,0,0,1,8.85,4.1q3.65,4.09,3.64,11.41,0,7.52-3.67,11.69a11.45,11.45,0,0,1-8.89,4.16,10.18,10.18,0,0,1-4.5-1,15.06,15.06,0,0,1-4.25-3.39v15h-7.91Z"/><path class="cls-3" d="M409.73,55.86q-1.53.51-4.83,1.21a14.67,14.67,0,0,0-4.31,1.38A3.3,3.3,0,0,0,399,61.24a3.88,3.88,0,0,0,1.24,2.88,4.33,4.33,0,0,0,3.16,1.21,6.87,6.87,0,0,0,4.09-1.41,4.93,4.93,0,0,0,1.88-2.62,15.38,15.38,0,0,0,.32-3.86ZM399.1,49.45l-7.16-1.27a11.28,11.28,0,0,1,4.17-6.5q3-2.11,8.8-2.11,5.31,0,7.9,1.25A7.85,7.85,0,0,1,416.46,44q1.07,1.93,1.06,7.09l-.11,9.24a32.72,32.72,0,0,0,.37,5.83,17.65,17.65,0,0,0,1.42,4h-7.86c-.2-.52-.46-1.29-.76-2.31-.13-.47-.22-.77-.28-.92a14.28,14.28,0,0,1-4.33,3,12.29,12.29,0,0,1-4.92,1,10.15,10.15,0,0,1-7.27-2.51,8.33,8.33,0,0,1-2.65-6.34,8.47,8.47,0,0,1,1.21-4.52,7.9,7.9,0,0,1,3.39-3.05,26.56,26.56,0,0,1,6.3-1.85,43.09,43.09,0,0,0,7.7-1.94v-.8a4.17,4.17,0,0,0-1.14-3.3q-1.12-1-4.26-1a5.64,5.64,0,0,0-3.31.85A5.86,5.86,0,0,0,399.1,49.45Z"/><path class="cls-3" d="M430,54.73c0,3.38.67,5.87,2,7.49a6.11,6.11,0,0,0,4.87,2.42,5.69,5.69,0,0,0,4.59-2.23q1.83-2.22,1.83-7.29,0-4.73-1.89-7a5.81,5.81,0,0,0-4.67-2.29A6,6,0,0,0,432,48.06Q430,50.31,430,54.73Zm-7.79-14.52h7.39v4.4a11,11,0,0,1,9.34-5,11.41,11.41,0,0,1,8.85,4.1q3.65,4.09,3.64,11.41,0,7.52-3.67,11.69a11.45,11.45,0,0,1-8.89,4.16,10.18,10.18,0,0,1-4.5-1,15.2,15.2,0,0,1-4.25-3.39v15h-7.91Z"/><path class="cls-3" d="M472.69,52.68a7.74,7.74,0,0,0-1.77-5.25,5.44,5.44,0,0,0-4.11-1.8,5.5,5.5,0,0,0-4.28,1.9,7.39,7.39,0,0,0-1.66,5.15Zm-.46,8L480.14,62a13,13,0,0,1-4.81,6.62,14.07,14.07,0,0,1-8.22,2.27q-7.82,0-11.56-5.11a17.23,17.23,0,0,1-3-10.34q0-7.47,3.89-11.69a12.8,12.8,0,0,1,9.83-4.22q6.68,0,10.54,4.42t3.69,13.54H460.73A8.09,8.09,0,0,0,462.64,63a6,6,0,0,0,4.56,2,4.78,4.78,0,0,0,3.11-1A6.18,6.18,0,0,0,472.23,60.71Z"/><path class="cls-3" d="M491.73,70.18h-7.91v-30h7.34v4.25a12.5,12.5,0,0,1,3.4-4,6.37,6.37,0,0,1,3.44-.94,10.16,10.16,0,0,1,5.23,1.49L500.77,48a7,7,0,0,0-3.73-1.3,4.4,4.4,0,0,0-2.82.92,6.27,6.27,0,0,0-1.82,3.31c-.44,1.6-.67,4.94-.67,10Z"/><path class="cls-3" d="M326.15,51.27a10.71,10.71,0,0,0-4.07,3.33,6.94,6.94,0,0,0-1.35,4,5.6,5.6,0,0,0,1.67,4.19,6.17,6.17,0,0,0,4.48,1.63,8.94,8.94,0,0,0,3.56-.74,15.47,15.47,0,0,0,3.74-2.43Zm3.1-8.63L331.37,41c1.57-1.23,2.35-2.44,2.35-3.65a3.45,3.45,0,0,0-1.13-2.6,4.29,4.29,0,0,0-3.06-1.07,4.23,4.23,0,0,0-2.94,1,2.86,2.86,0,0,0-1.07,2.19,6,6,0,0,0,1.79,3.56Zm21.57,22.53L346,71.28a28.08,28.08,0,0,1-6.78-4.74,16.91,16.91,0,0,1-5.32,3.32,18.78,18.78,0,0,1-6.71,1.07q-7.72,0-11.61-4.35a11.2,11.2,0,0,1-3-7.73A11.69,11.69,0,0,1,315,51.69a19.55,19.55,0,0,1,7.1-5.52,22.17,22.17,0,0,1-3.2-4.79,10.07,10.07,0,0,1-1.08-4.31,8.16,8.16,0,0,1,3-6.38q3-2.61,8.55-2.61,5.35,0,8.37,2.73a8.7,8.7,0,0,1,3,6.69,8.56,8.56,0,0,1-1.48,4.77q-1.49,2.25-6,5.1L338.93,55a18.88,18.88,0,0,0,1.74-4.68l7.19,1.6A43.93,43.93,0,0,1,346,57.52a14.72,14.72,0,0,1-1.69,3,32.1,32.1,0,0,0,3.43,2.72A25.73,25.73,0,0,0,350.82,65.17Z"/><path class="cls-3" d="M111.6,88.27h3V90a4.39,4.39,0,0,1,3.73-2,4.57,4.57,0,0,1,3.54,1.64,6.67,6.67,0,0,1,1.46,4.57,6.83,6.83,0,0,1-1.47,4.67,4.58,4.58,0,0,1-3.56,1.67,4,4,0,0,1-1.8-.4,6,6,0,0,1-1.7-1.35v6H111.6Zm3.12,5.81a4.59,4.59,0,0,0,.8,3,2.42,2.42,0,0,0,1.94,1,2.3,2.3,0,0,0,1.84-.89,4.58,4.58,0,0,0,.73-2.92,4.36,4.36,0,0,0-.75-2.8,2.32,2.32,0,0,0-1.87-.92,2.44,2.44,0,0,0-1.93.9A4,4,0,0,0,114.72,94.08Z"/><path class="cls-3" d="M132.58,100.26v-1.8a4.87,4.87,0,0,1-4,2.1,4.51,4.51,0,0,1-2.18-.53,3.2,3.2,0,0,1-1.39-1.5,6.79,6.79,0,0,1-.43-2.66v-7.6h3.17v5.52a16,16,0,0,0,.17,3.1,1.71,1.71,0,0,0,.64.91,2,2,0,0,0,1.18.33,2.54,2.54,0,0,0,1.46-.44,2.32,2.32,0,0,0,.89-1.11,13.44,13.44,0,0,0,.23-3.24V88.27h3.17v12Z"/><rect class="cls-4" x="137.63" y="83.72" width="3.17" height="16.54"/><path class="cls-3" d="M142.79,88.27h3V90a4.39,4.39,0,0,1,3.73-2A4.57,4.57,0,0,1,153,89.65a6.67,6.67,0,0,1,1.46,4.57A6.83,6.83,0,0,1,153,98.89a4.58,4.58,0,0,1-3.56,1.67,4,4,0,0,1-1.8-.4,6,6,0,0,1-1.7-1.35v6h-3.16Zm3.12,5.81a4.59,4.59,0,0,0,.8,3,2.42,2.42,0,0,0,1.94,1,2.3,2.3,0,0,0,1.84-.89,4.58,4.58,0,0,0,.73-2.92,4.36,4.36,0,0,0-.75-2.8,2.32,2.32,0,0,0-1.87-.92,2.42,2.42,0,0,0-1.93.9A4,4,0,0,0,145.91,94.08Z"/><path class="cls-3" d="M163.46,92l-2.87-.5a4.56,4.56,0,0,1,1.67-2.6,6.09,6.09,0,0,1,3.52-.85,7.46,7.46,0,0,1,3.16.51,3.17,3.17,0,0,1,1.47,1.27,6.57,6.57,0,0,1,.42,2.84l-.05,3.69a13,13,0,0,0,.15,2.33,6.65,6.65,0,0,0,.57,1.61h-3.14a9,9,0,0,1-.31-.93c-.05-.18-.09-.31-.11-.37a5.69,5.69,0,0,1-1.73,1.2,4.85,4.85,0,0,1-2,.4,4.07,4.07,0,0,1-2.91-1A3.31,3.31,0,0,1,160.27,97a3.42,3.42,0,0,1,.48-1.81A3.22,3.22,0,0,1,162.11,94a10.6,10.6,0,0,1,2.52-.74,17.46,17.46,0,0,0,3.08-.78v-.32a1.7,1.7,0,0,0-.45-1.32,2.71,2.71,0,0,0-1.71-.39,2.18,2.18,0,0,0-1.32.34A2.27,2.27,0,0,0,163.46,92Zm4.25,2.57a19.69,19.69,0,0,1-1.93.48,5.76,5.76,0,0,0-1.72.56,1.3,1.3,0,0,0-.63,1.11,1.55,1.55,0,0,0,.5,1.15,1.7,1.7,0,0,0,1.26.49,2.72,2.72,0,0,0,1.64-.57,2,2,0,0,0,.75-1,5.78,5.78,0,0,0,.13-1.54Z"/><path class="cls-3" d="M183.71,100.26h-3.16V94.15a9.17,9.17,0,0,0-.21-2.51,1.69,1.69,0,0,0-.66-.88,1.93,1.93,0,0,0-1.11-.32,2.59,2.59,0,0,0-1.49.45,2.31,2.31,0,0,0-.91,1.2,10.38,10.38,0,0,0-.24,2.75v5.42h-3.17v-12h2.94V90a4.95,4.95,0,0,1,5.89-1.64,3.22,3.22,0,0,1,1.33,1,3.62,3.62,0,0,1,.62,1.33,9.65,9.65,0,0,1,.17,2.13Z"/><path class="cls-3" d="M196.78,100.26h-2.94V98.5a4.94,4.94,0,0,1-1.73,1.54,4.31,4.31,0,0,1-2,.52,4.59,4.59,0,0,1-3.55-1.67,8.12,8.12,0,0,1,0-9.29A4.69,4.69,0,0,1,190.13,88a4.51,4.51,0,0,1,3.48,1.67v-6h3.17ZM188.32,94a5.61,5.61,0,0,0,.53,2.79A2.38,2.38,0,0,0,191,98.06a2.33,2.33,0,0,0,1.86-.93,4.32,4.32,0,0,0,.76-2.79,4.78,4.78,0,0,0-.74-3,2.34,2.34,0,0,0-1.9-.91,2.39,2.39,0,0,0-1.89.9A4.07,4.07,0,0,0,188.32,94Z"/><path class="cls-3" d="M343.18,96.84l3.18-.48a2.38,2.38,0,0,0,.82,1.41,2.86,2.86,0,0,0,1.74.47,3.13,3.13,0,0,0,1.85-.45,1,1,0,0,0,.42-.85.85.85,0,0,0-.23-.6,2.59,2.59,0,0,0-1.06-.41A17,17,0,0,1,345,94.38a3.08,3.08,0,0,1-1.42-2.7,3.31,3.31,0,0,1,1.23-2.61A5.72,5.72,0,0,1,348.66,88a6.62,6.62,0,0,1,3.66.8A4.09,4.09,0,0,1,354,91.18l-3,.55a1.79,1.79,0,0,0-.73-1.07,2.6,2.6,0,0,0-1.52-.38,3.49,3.49,0,0,0-1.8.35.76.76,0,0,0-.36.65.69.69,0,0,0,.32.57,11.66,11.66,0,0,0,2.95.89,8.85,8.85,0,0,1,3.55,1.42,2.92,2.92,0,0,1,1,2.35A3.63,3.63,0,0,1,353,99.35a6.06,6.06,0,0,1-4.07,1.18,6.71,6.71,0,0,1-3.88-1A4.55,4.55,0,0,1,343.18,96.84Zm.07-8.56V90.8h-2.17v4.83a12.7,12.7,0,0,0,.06,1.72.68.68,0,0,0,.28.39.89.89,0,0,0,.54.16,4.16,4.16,0,0,0,1.28-.3l.27,2.46a6.42,6.42,0,0,1-2.51.47,4,4,0,0,1-1.54-.28,2.35,2.35,0,0,1-1-.75,3,3,0,0,1-.44-1.24,15.06,15.06,0,0,1-.1-2.23V90.8h-1.46V88.28h1.46V85.9L341.08,84v4.24Zm-6.74,3.54-3.13.56a2.33,2.33,0,0,0-.72-1.41,2.18,2.18,0,0,0-1.45-.47,2.36,2.36,0,0,0-1.89.82,4.18,4.18,0,0,0-.7,2.73,4.92,4.92,0,0,0,.71,3,2.38,2.38,0,0,0,1.93.88,2.16,2.16,0,0,0,1.48-.51,3.18,3.18,0,0,0,.81-1.77l3.11.53a5.5,5.5,0,0,1-1.86,3.24,5.77,5.77,0,0,1-3.69,1.09,5.51,5.51,0,0,1-4.2-1.66,7.58,7.58,0,0,1,0-9.21A5.55,5.55,0,0,1,331.17,88a5.71,5.71,0,0,1,3.47.94A5.2,5.2,0,0,1,336.51,91.82ZM321,100.26V98.47a4.58,4.58,0,0,1-1.72,1.51,4.8,4.8,0,0,1-2.25.55,4.47,4.47,0,0,1-2.17-.53,3.11,3.11,0,0,1-1.38-1.49,6.56,6.56,0,0,1-.43-2.65V88.28h3.17v5.5a16.2,16.2,0,0,0,.17,3.11,1.77,1.77,0,0,0,.64.9,2,2,0,0,0,1.17.33,2.54,2.54,0,0,0,1.46-.44,2.29,2.29,0,0,0,.88-1.11,12.72,12.72,0,0,0,.24-3.24v-5h3.17v12ZM302.66,94a5.49,5.49,0,0,0,.53,2.77A2.4,2.4,0,0,0,305.34,98a2.33,2.33,0,0,0,1.86-.93,4.32,4.32,0,0,0,.77-2.79,4.64,4.64,0,0,0-.75-3,2.34,2.34,0,0,0-1.91-.92,2.39,2.39,0,0,0-1.89.9A4,4,0,0,0,302.66,94Zm8.47,6.25h-2.95V98.5a4.76,4.76,0,0,1-1.74,1.53,4.33,4.33,0,0,1-2,.5,4.59,4.59,0,0,1-3.54-1.66,6.79,6.79,0,0,1-1.47-4.65,6.63,6.63,0,0,1,1.44-4.62A4.65,4.65,0,0,1,304.48,88,4.44,4.44,0,0,1,308,89.68v-6h3.18Zm-21.44-6a3.93,3.93,0,0,0,.85,2.73,2.75,2.75,0,0,0,4.16,0,4,4,0,0,0,.85-2.75,3.9,3.9,0,0,0-.85-2.71,2.75,2.75,0,0,0-4.16,0A3.93,3.93,0,0,0,289.69,94.27Zm-3.25-.17a6.5,6.5,0,0,1,.78-3.06,5.39,5.39,0,0,1,2.2-2.26,6.57,6.57,0,0,1,3.19-.77,6,6,0,0,1,4.46,1.77,6.07,6.07,0,0,1,1.74,4.45,6.21,6.21,0,0,1-1.76,4.52,5.92,5.92,0,0,1-4.41,1.78,7.08,7.08,0,0,1-3.15-.74,5.15,5.15,0,0,1-2.27-2.18A7.28,7.28,0,0,1,286.44,94.1Zm-4.07,6.16H279.2v-12h2.95V90a5.21,5.21,0,0,1,1.35-1.59,2.52,2.52,0,0,1,1.38-.38,4.05,4.05,0,0,1,2.08.59l-1,2.77a2.74,2.74,0,0,0-1.49-.52,1.7,1.7,0,0,0-1.12.37,2.48,2.48,0,0,0-.74,1.32,19.47,19.47,0,0,0-.26,4Zm-12.95-6.19a4.68,4.68,0,0,0,.8,3,2.46,2.46,0,0,0,2,1,2.3,2.3,0,0,0,1.84-.88,4.63,4.63,0,0,0,.73-2.91,4.31,4.31,0,0,0-.76-2.8,2.36,2.36,0,0,0-1.87-.91,2.42,2.42,0,0,0-1.93.9A4,4,0,0,0,269.42,94.07Zm-3.13-5.79h2.95V90a4.5,4.5,0,0,1,1.56-1.47A4.24,4.24,0,0,1,273,88a4.56,4.56,0,0,1,3.54,1.63A6.63,6.63,0,0,1,278,94.2a6.83,6.83,0,0,1-1.47,4.67,4.57,4.57,0,0,1-3.56,1.66,4.1,4.1,0,0,1-1.8-.39,6.1,6.1,0,0,1-1.69-1.36v6h-3.17Zm-10,12h-3.17v-12h2.94V90a5.35,5.35,0,0,1,1.36-1.59,2.46,2.46,0,0,1,1.37-.38,4.09,4.09,0,0,1,2.09.59l-1,2.77a2.74,2.74,0,0,0-1.49-.52,1.75,1.75,0,0,0-1.13.37,2.48,2.48,0,0,0-.73,1.32,19.47,19.47,0,0,0-.26,4Zm-7.61-7a3.09,3.09,0,0,0-.71-2.09,2.29,2.29,0,0,0-3.37,0,2.91,2.91,0,0,0-.66,2Zm-.18,3.21,3.16.53a5.22,5.22,0,0,1-1.93,2.65,5.69,5.69,0,0,1-3.29.9,5.36,5.36,0,0,1-4.62-2,6.87,6.87,0,0,1-1.19-4.13,6.58,6.58,0,0,1,1.56-4.66A5.12,5.12,0,0,1,246.15,88a5.32,5.32,0,0,1,4.22,1.77q1.55,1.75,1.47,5.4H243.9a3.2,3.2,0,0,0,.77,2.2,2.41,2.41,0,0,0,1.83.78,2,2,0,0,0,1.25-.4A2.6,2.6,0,0,0,248.52,96.45Zm-16.86-2.38a4.68,4.68,0,0,0,.8,3,2.46,2.46,0,0,0,2,1,2.27,2.27,0,0,0,1.83-.88,4.56,4.56,0,0,0,.74-2.91,4.31,4.31,0,0,0-.76-2.8,2.36,2.36,0,0,0-1.87-.91,2.42,2.42,0,0,0-1.93.9A4,4,0,0,0,231.66,94.07Zm-3.13-5.79h2.95V90A4.5,4.5,0,0,1,233,88.57a4.24,4.24,0,0,1,2.18-.56,4.56,4.56,0,0,1,3.54,1.63,6.63,6.63,0,0,1,1.46,4.56,6.83,6.83,0,0,1-1.47,4.67,4.57,4.57,0,0,1-3.56,1.66,4.1,4.1,0,0,1-1.8-.39,6.1,6.1,0,0,1-1.69-1.36v6h-3.17Zm-5,6.23c-.4.13-1.05.29-1.93.48a5.84,5.84,0,0,0-1.72.55,1.33,1.33,0,0,0-.63,1.12,1.56,1.56,0,0,0,.5,1.15,1.7,1.7,0,0,0,1.26.49,2.72,2.72,0,0,0,1.64-.57,2,2,0,0,0,.76-1,6.4,6.4,0,0,0,.12-1.54Zm-4.24-2.58-2.88-.52a4.46,4.46,0,0,1,1.67-2.57A6.08,6.08,0,0,1,221.6,88a7.49,7.49,0,0,1,3.16.5,3.1,3.1,0,0,1,1.46,1.28,6.48,6.48,0,0,1,.43,2.83l0,3.7a13.2,13.2,0,0,0,.15,2.34,7.21,7.21,0,0,0,.57,1.6H224.2a8.55,8.55,0,0,1-.31-.94l-.11-.37a5.75,5.75,0,0,1-1.74,1.19,5,5,0,0,1-2,.39,4.12,4.12,0,0,1-2.93-1A3.38,3.38,0,0,1,216.08,97a3.43,3.43,0,0,1,.49-1.81A3.13,3.13,0,0,1,217.92,94a10.85,10.85,0,0,1,2.53-.74,17.46,17.46,0,0,0,3.08-.78v-.32a1.6,1.6,0,0,0-.45-1.29,2.62,2.62,0,0,0-1.7-.4,2.18,2.18,0,0,0-1.32.34A2.25,2.25,0,0,0,219.29,91.93ZM207,94.07a4.62,4.62,0,0,0,.81,3,2.43,2.43,0,0,0,1.95,1,2.29,2.29,0,0,0,1.84-.88,4.57,4.57,0,0,0,.73-2.91,4.31,4.31,0,0,0-.76-2.8,2.34,2.34,0,0,0-1.87-.91,2.44,2.44,0,0,0-1.93.9A4,4,0,0,0,207,94.07Zm-3.13-5.79h2.95V90a4.59,4.59,0,0,1,1.56-1.47,4.27,4.27,0,0,1,2.18-.56,4.56,4.56,0,0,1,3.54,1.63,6.63,6.63,0,0,1,1.46,4.56,6.83,6.83,0,0,1-1.47,4.67,4.56,4.56,0,0,1-3.55,1.66,4.11,4.11,0,0,1-1.81-.39A6.25,6.25,0,0,1,207,98.78v6h-3.17Z"/></svg>