<svg xmlns="http://www.w3.org/2000/svg" version="1.1" xmlns:xlink="http://www.w3.org/1999/xlink" xmlns:svgjs="http://svgjs.dev/svgjs" width="1440" height="560" preserveAspectRatio="none" viewBox="0 0 1440 560"><g clip-path="url(&quot;#SvgjsClipPath1056&quot;)" fill="none"><path d="M23.49 78.19Q31.05 80.8 38.6 83.41 46.16 86 53.72 88.58 61.27 91.12 68.83 93.67 76.38 96.16 83.94 98.65 91.5 101.08 99.05 103.51 106.61 105.87 114.17 108.22 121.72 110.5 129.28 112.77 136.84 114.95 144.39 117.13 151.95 119.21 159.5 121.29 167.06 123.26 174.62 125.22 182.17 127.07 189.73 128.92" stroke="rgba(0, 1, 7, 1)" stroke-width="4"></path><path d="M217.74 135.08Q225.53 136.58 233.31 138.09 241.1 139.43 248.88 140.78 256.67 141.96 264.46 143.15 272.24 144.16 280.03 145.18 287.81 146.02 295.6 146.86 303.38 147.53 311.17 148.19" stroke="rgba(0, 1, 7, 1)" stroke-width="4"></path><path d="M327.5 149.2Q335.53 149.5 343.57 149.79 351.6 149.9 359.63 150 367.67 149.91 375.7 149.81 383.73 149.52 391.77 149.23 399.8 148.75 407.83 148.26 415.87 147.59 423.9 146.91" stroke="#4000ff" stroke-width="4"></path><path d="M463.58 141.97Q471.74 140.63 479.91 139.3 488.07 137.79 496.23 136.28 504.4 134.6 512.56 132.92 520.72 131.08 528.89 129.24 537.05 127.26 545.21 125.27 553.38 123.14 561.54 121.01" stroke="rgba(0, 1, 7, 1)" stroke-width="4"></path><path d="M589.82 113.04Q597.56 110.71 605.3 108.39 613.05 105.97 620.79 103.56 628.53 101.07 636.27 98.58 644.01 96.03 651.75 93.47 659.5 90.86 667.24 88.25 674.98 85.6 682.72 82.96 690.46 80.28 698.21 77.6 705.95 74.9 713.69 72.2" stroke="rgba(0, 1, 7, 1)" stroke-width="4"></path><path d="M744.5 61.46Q753.1 58.49 761.7 55.52 770.3 52.59 778.9 49.67 787.5 46.79 796.1 43.92 804.7 41.12 813.3 38.32 821.9 35.61 830.5 32.91" stroke="#4000ff" stroke-width="4"></path><path d="M846.48 28.06Q855.46 25.46 864.44 22.85 873.42 20.4 882.4 17.94 891.38 15.64 900.36 13.34" stroke="rgba(0, 1, 7, 1)" stroke-width="4"></path><path d="M917.07 9.38Q925.19 7.61 933.31 5.84 941.43 4.22 949.55 2.61 957.67 1.17 965.79-0.27 973.91-1.54 982.03-2.8" stroke="rgba(0, 1, 7, 1)" stroke-width="4"></path><path d="M1005.53-5.81Q1014.77-6.72 1024.02-7.63 1033.26-8.28 1042.5-8.93 1051.75-9.33 1060.99-9.72" stroke="#4000ff" stroke-width="4"></path><path d="M1095.52-9.82Q1103.25-9.54 1110.98-9.27 1118.71-8.82 1126.44-8.36 1134.17-7.73 1141.9-7.1 1149.63-6.29 1157.36-5.49 1165.09-4.51 1172.82-3.53 1180.55-2.38 1188.28-1.24 1196.02 0.07 1203.75 1.38 1211.48 2.85 1219.21 4.31 1226.94 5.92 1234.67 7.54 1242.4 9.29 1250.13 11.05 1257.86 12.94 1265.59 14.83 1273.32 16.84 1281.05 18.86" stroke="#4000ff" stroke-width="4"></path><path d="M1292.97 22.13Q1300.69 24.34 1308.42 26.55 1316.14 28.86 1323.86 31.17 1331.59 33.57 1339.31 35.97" stroke="rgba(0, 1, 7, 1)" stroke-width="4"></path><path d="M1377.51 48.46Q1380.11 49.33 1382.72 50.21 1385.32 51.1 1387.92 51.98 1390.53 52.87 1393.13 53.75 1395.74 54.65 1398.34 55.54 1400.94 56.43 1403.55 57.33 1406.15 58.23 1408.76 59.13 1411.36 60.03 1413.96 60.93 1416.57 61.83 1419.17 62.74 1421.77 63.64 1424.38 64.55 1426.98 65.46 1429.59 66.37 1432.19 67.27 1434.79 68.18 1437.4 69.09 1440 70" stroke="rgba(0, 1, 7, 1)" stroke-width="4"></path><path d="M27.9 149.71Q36.46 152.66 45.02 155.61 53.58 158.52 62.14 161.43 70.7 164.27 79.25 167.12 87.81 169.89 96.37 172.66 104.93 175.34 113.49 178.02 122.05 180.59 130.61 183.16" stroke="rgba(0, 1, 7, 1)" stroke-width="4"></path><path d="M160.33 191.51Q168.88 193.72 177.43 195.93 185.99 197.99 194.54 200.04 203.09 201.93 211.64 203.82 220.2 205.53 228.75 207.24 237.3 208.76 245.85 210.28 254.41 211.61 262.96 212.94" stroke="#4000ff" stroke-width="4"></path><path d="M289.7 216.27Q297.8 217.02 305.89 217.78 313.99 218.34 322.09 218.91 330.18 219.27 338.28 219.64 346.38 219.81 354.48 219.98 362.57 219.95 370.67 219.91 378.77 219.68 386.86 219.45 394.96 219.02 403.06 218.59 411.15 217.97 419.25 217.34 427.35 216.52 435.45 215.7 443.54 214.7 451.64 213.69" stroke="#4000ff" stroke-width="4"></path><path d="M466.73 211.48Q474.46 210.19 482.2 208.9 489.93 207.45 497.66 206 505.39 204.4 513.13 202.8 520.86 201.06 528.59 199.31 536.33 197.44 544.06 195.56 551.79 193.55 559.52 191.55 567.26 189.43 574.99 187.31 582.72 185.08 590.45 182.85 598.19 180.52 605.92 178.2" stroke="rgba(0, 1, 7, 1)" stroke-width="4"></path><path d="M622.88 172.9Q631.29 170.18 639.71 167.46 648.12 164.67 656.53 161.87 664.94 159.02 673.36 156.17 681.77 153.27 690.18 150.38 698.6 147.46 707.01 144.53 715.42 141.6 723.83 138.66 732.25 135.73 740.66 132.8" stroke="#4000ff" stroke-width="4"></path><path d="M780.13 119.25Q784.93 117.64 789.73 116.03 794.52 114.45 799.32 112.86 804.12 111.3 808.92 109.73" stroke="rgba(0, 1, 7, 1)" stroke-width="4"></path><path d="M823.99 104.93Q833.33 102.06 842.67 99.19 852.02 96.46 861.36 93.73 870.7 91.15 880.05 88.56 889.39 86.16 898.73 83.75" stroke="#4000ff" stroke-width="4"></path><path d="M910.51 80.9Q918.12 79.17 925.73 77.45 933.35 75.86 940.96 74.28 948.57 72.84 956.18 71.39 963.8 70.1 971.41 68.81 979.02 67.68 986.63 66.55 994.25 65.58 1001.86 64.61 1009.47 63.8 1017.08 63 1024.69 62.36 1032.31 61.73 1039.92 61.26 1047.53 60.8 1055.14 60.51 1062.76 60.23 1070.37 60.11 1077.98 60" stroke="rgba(0, 1, 7, 1)" stroke-width="4"></path><path d="M1107.15 60.56Q1114.37 60.94 1121.6 61.31 1128.82 61.85 1136.04 62.38 1143.27 63.07 1150.49 63.75" stroke="#4000ff" stroke-width="4"></path><path d="M1169.22 65.99Q1178.38 67.32 1187.55 68.65 1196.71 70.21 1205.87 71.77 1215.03 73.54 1224.19 75.32 1233.36 77.3 1242.52 79.29" stroke="rgba(0, 1, 7, 1)" stroke-width="4"></path><path d="M1272.71 86.65Q1280.63 88.78 1288.55 90.9 1296.47 93.14 1304.39 95.38 1312.31 97.72 1320.23 100.07 1328.16 102.51 1336.08 104.95 1344 107.48 1351.92 110 1359.84 112.6 1367.76 115.2 1375.68 117.85 1383.6 120.51" stroke="#4000ff" stroke-width="4"></path><path d="M1405.68 128.06Q1411.4 130.05 1417.12 132.03 1422.84 134.02 1428.56 136.01 1434.28 138 1440 140" stroke="rgba(0, 1, 7, 1)" stroke-width="4"></path><path d="M27.38 219.53Q35.06 222.18 42.73 224.83 50.41 227.45 58.09 230.06 65.77 232.63 73.44 235.2 81.12 237.71 88.8 240.23 96.47 242.67 104.15 245.12 111.83 247.48 119.51 249.85 127.18 252.13 134.86 254.41 142.54 256.58 150.22 258.76 157.89 260.83 165.57 262.9" stroke="rgba(0, 1, 7, 1)" stroke-width="4"></path><path d="M176.27 265.64Q183.44 267.38 190.6 269.12 197.76 270.75 204.93 272.38 212.09 273.88 219.26 275.38" stroke="rgba(0, 1, 7, 1)" stroke-width="4"></path><path d="M257.92 282.19Q261.39 282.7 264.86 283.2 268.32 283.68 271.79 284.15 275.26 284.59 278.73 285.02" stroke="#4000ff" stroke-width="4"></path><path d="M315.66 288.51Q325.17 289.01 334.69 289.51 344.2 289.74 353.72 289.97 363.24 289.92 372.75 289.88" stroke="#4000ff" stroke-width="4"></path><path d="M399.6 288.81Q408.04 288.2 416.49 287.58 424.93 286.76 433.38 285.93 441.82 284.9 450.26 283.88 458.71 282.64 467.15 281.41 475.6 279.99 484.04 278.57" stroke="#4000ff" stroke-width="4"></path><path d="M513.29 272.76Q515.15 272.36 517.01 271.95 518.87 271.53 520.73 271.12 522.59 270.7 524.45 270.27" stroke="#4000ff" stroke-width="4"></path><path d="M556.3 262.41Q564.33 260.22 572.36 258.04 580.39 255.75 588.42 253.45 596.45 251.04 604.48 248.64 612.52 246.14 620.55 243.64 628.58 241.05 636.61 238.47 644.64 235.82 652.67 233.17 660.7 230.46 668.73 227.75 676.76 224.99 684.79 222.24 692.82 219.46 700.86 216.68 708.89 213.88 716.92 211.08 724.95 208.27 732.98 205.47 741.01 202.68 749.04 199.89" stroke="#4000ff" stroke-width="4"></path><path d="M768.17 193.31Q775.71 190.76 783.24 188.2 790.78 185.7 798.32 183.19 805.85 180.74 813.39 178.3" stroke="rgba(0, 1, 7, 1)" stroke-width="4"></path><path d="M844.8 168.56Q851.76 166.52 858.72 164.48 865.68 162.53 872.64 160.57 879.6 158.71 886.56 156.84" stroke="rgba(0, 1, 7, 1)" stroke-width="4"></path><path d="M912.52 150.43Q917.74 149.24 922.96 148.06 928.18 146.94 933.4 145.82 938.62 144.76 943.84 143.71" stroke="#4000ff" stroke-width="4"></path><path d="M977.44 137.88Q985.32 136.77 993.2 135.67 1001.08 134.74 1008.96 133.81 1016.84 133.06 1024.72 132.32 1032.6 131.75 1040.48 131.19 1048.36 130.81 1056.24 130.43 1064.12 130.24 1072 130.05 1079.88 130.05 1087.76 130.05 1095.64 130.23 1103.52 130.42" stroke="#4000ff" stroke-width="4"></path><path d="M1118.28 131.11Q1126.51 131.69 1134.73 132.27 1142.96 133.05 1151.19 133.83 1159.41 134.8 1167.64 135.78 1175.87 136.94 1184.09 138.11 1192.32 139.46 1200.55 140.81 1208.77 142.34 1217 143.87" stroke="rgba(0, 1, 7, 1)" stroke-width="4"></path><path d="M1255.27 152.28Q1264.46 154.59 1273.65 156.9 1282.84 159.38 1292.03 161.86 1301.23 164.5 1310.42 167.14 1319.61 169.91 1328.8 172.69" stroke="rgba(0, 1, 7, 1)" stroke-width="4"></path><path d="M1352.79 180.29Q1362.76 183.57 1372.72 186.85 1382.68 190.22 1392.65 193.59 1402.61 197.02 1412.58 200.45" stroke="#4000ff" stroke-width="4"></path><path d="M37.68 293.09Q46.13 295.98 54.57 298.87 63.02 301.71 71.46 304.54 79.91 307.31 88.36 310.08 96.8 312.77 105.25 315.46 113.69 318.05 122.14 320.65" stroke="rgba(0, 1, 7, 1)" stroke-width="4"></path><path d="M145.77 327.52Q154.21 329.83 162.66 332.13 171.1 334.29 179.54 336.46 187.99 338.47 196.43 340.48" stroke="#4000ff" stroke-width="4"></path><path d="M232.53 347.94Q242.43 349.64 252.33 351.33 262.23 352.76 272.14 354.19 282.04 355.35 291.94 356.5" stroke="#4000ff" stroke-width="4"></path><path d="M305.48 357.75Q314.37 358.36 323.27 358.97 332.16 359.35 341.05 359.73 349.94 359.86 358.84 360 367.73 359.89 376.62 359.79 385.52 359.44 394.41 359.1" stroke="#4000ff" stroke-width="4"></path><path d="M430.42 356.25Q439.35 355.2 448.28 354.14 457.21 352.86 466.14 351.57 475.07 350.07 484 348.57" stroke="rgba(0, 1, 7, 1)" stroke-width="4"></path><path d="M513.76 342.66Q521.43 340.93 529.1 339.19 536.76 337.33 544.43 335.46 552.1 333.47 559.77 331.49 567.44 329.38 575.1 327.28 582.77 325.06 590.44 322.85 598.11 320.55 605.78 318.24 613.44 315.85 621.11 313.46 628.78 310.99 636.45 308.52 644.12 305.99 651.78 303.46 659.45 300.88 667.12 298.3" stroke="#4000ff" stroke-width="4"></path><path d="M703.05 285.91Q710.66 283.26 718.27 280.6 725.88 277.95 733.49 275.29 741.1 272.65 748.71 270 756.32 267.38 763.93 264.76" stroke="#4000ff" stroke-width="4"></path><path d="M777.39 260.18Q785.37 257.51 793.34 254.83 801.32 252.22 809.29 249.61 817.26 247.08 825.24 244.54" stroke="#4000ff" stroke-width="4"></path><path d="M837.99 240.61Q842.27 239.32 846.55 238.04 850.84 236.78 855.12 235.52 859.4 234.29 863.68 233.07" stroke="rgba(0, 1, 7, 1)" stroke-width="4"></path><path d="M882.09 228.02Q889.99 225.99 897.88 223.96 905.78 222.06 913.68 220.16 921.58 218.4 929.48 216.64 937.37 215.04 945.27 213.43 953.17 211.98 961.07 210.53 968.96 209.25 976.86 207.97 984.76 206.85 992.66 205.74 1000.55 204.8 1008.45 203.87 1016.35 203.11 1024.25 202.36 1032.14 201.78 1040.04 201.21 1047.94 200.83 1055.84 200.44 1063.73 200.25 1071.63 200.05" stroke="#4000ff" stroke-width="4"></path><path d="M1097.54 200.23Q1105.13 200.52 1112.73 200.81 1120.32 201.28 1127.91 201.74 1135.5 202.38 1143.1 203.01 1150.69 203.82 1158.28 204.62 1165.88 205.59 1173.47 206.56 1181.06 207.69 1188.65 208.82 1196.25 210.11 1203.84 211.4 1211.43 212.84 1219.02 214.27 1226.62 215.86 1234.21 217.44" stroke="#4000ff" stroke-width="4"></path><path d="M1244.41 219.72Q1252.65 221.69 1260.9 223.65 1269.14 225.77 1277.39 227.88 1285.63 230.13 1293.88 232.38 1302.12 234.75 1310.37 237.12 1318.61 239.61 1326.85 242.09 1335.1 244.67 1343.34 247.25 1351.59 249.92 1359.83 252.58 1368.08 255.32 1376.32 258.06" stroke="rgba(0, 1, 7, 1)" stroke-width="4"></path><path d="M1393.71 263.95Q1397.02 265.09 1400.32 266.22 1403.63 267.36 1406.94 268.5 1410.24 269.64 1413.55 270.79 1416.86 271.94 1420.16 273.08 1423.47 274.23 1426.77 275.39 1430.08 276.54 1433.39 277.69 1436.69 278.85 1440 280" stroke="rgba(0, 1, 7, 1)" stroke-width="4"></path><path d="M47.67 366.52Q56.45 369.49 65.22 372.46 74 375.37 82.78 378.27 91.55 381.09 100.33 383.91" stroke="#4000ff" stroke-width="4"></path><path d="M137.41 395.14Q145.1 397.31 152.79 399.47 160.48 401.52 168.17 403.57 175.86 405.51 183.55 407.44 191.24 409.24 198.93 411.04 206.62 412.71 214.31 414.37 222 415.89 229.69 417.41 237.38 418.78 245.07 420.15" stroke="#4000ff" stroke-width="4"></path><path d="M257.32 422.1Q259.43 422.42 261.54 422.73 263.64 423.03 265.75 423.33 267.86 423.62 269.97 423.91" stroke="#4000ff" stroke-width="4"></path><path d="M288.38 426.13Q296.24 426.88 304.1 427.63 311.95 428.2 319.81 428.77 327.67 429.16 335.53 429.54 343.39 429.74 351.24 429.94 359.1 429.95 366.96 429.96" stroke="#4000ff" stroke-width="4"></path><path d="M378.32 429.74Q385.89 429.45 393.46 429.15 401.03 428.68 408.59 428.21 416.16 427.57 423.73 426.93 431.3 426.12 438.87 425.31 446.44 424.34 454.01 423.36 461.57 422.23 469.14 421.1 476.71 419.81 484.28 418.52 491.85 417.09 499.42 415.65 506.99 414.07 514.56 412.49 522.12 410.77 529.69 409.05 537.26 407.21 544.83 405.36" stroke="#4000ff" stroke-width="4"></path><path d="M559.22 401.63Q566.96 399.51 574.7 397.39 582.44 395.16 590.18 392.93 597.92 390.6 605.67 388.28 613.41 385.86 621.15 383.45 628.89 380.96 636.63 378.46 644.37 375.91 652.11 373.35 659.85 370.74 667.59 368.13 675.33 365.48 683.07 362.83 690.82 360.15 698.56 357.47 706.3 354.78 714.04 352.08 721.78 349.38 729.52 346.68" stroke="rgba(0, 1, 7, 1)" stroke-width="4"></path><path d="M755.54 337.64Q763.55 334.9 771.55 332.16 779.56 329.46 787.56 326.76 795.57 324.11 803.57 321.47 811.58 318.9 819.59 316.32 827.59 313.83 835.6 311.34 843.6 308.94 851.61 306.54 859.62 304.25 867.62 301.96 875.63 299.79 883.63 297.61 891.64 295.57 899.64 293.52 907.65 291.61 915.66 289.7 923.66 287.94 931.67 286.18 939.67 284.57 947.68 282.97" stroke="#4000ff" stroke-width="4"></path><path d="M972.91 278.58Q980.51 277.46 988.11 276.35 995.71 275.39 1003.3 274.44 1010.9 273.65 1018.5 272.86 1026.1 272.25 1033.7 271.63 1041.3 271.18 1048.9 270.74 1056.49 270.46 1064.09 270.19 1071.69 270.1 1079.29 270" stroke="rgba(0, 1, 7, 1)" stroke-width="4"></path><path d="M1106.96 270.55Q1110.55 270.72 1114.13 270.89 1117.72 271.09 1121.3 271.3 1124.88 271.54 1128.47 271.78" stroke="#4000ff" stroke-width="4"></path><path d="M1154.71 274.21Q1162.63 275.19 1170.55 276.16 1178.47 277.32 1186.39 278.47 1194.32 279.79 1202.24 281.11 1210.16 282.6 1218.08 284.09 1226 285.73 1233.92 287.37 1241.84 289.17 1249.76 290.96 1257.68 292.9 1265.61 294.83 1273.53 296.9 1281.45 298.97 1289.37 301.15 1297.29 303.34" stroke="rgba(0, 1, 7, 1)" stroke-width="4"></path><path d="M1333.48 314.14Q1341.09 316.55 1348.7 318.97 1356.31 321.45 1363.91 323.93 1371.52 326.46 1379.13 329 1386.74 331.59 1394.35 334.17 1401.96 336.79 1409.57 339.41 1417.17 342.05 1424.78 344.69 1432.39 347.35 1440 350" stroke="#4000ff" stroke-width="4"></path><path d="M22.09 427.7Q29.64 430.31 37.18 432.92 44.73 435.51 52.28 438.09 59.82 440.64 67.37 443.18 74.92 445.67 82.47 448.17 90.01 450.6 97.56 453.04 105.11 455.4 112.65 457.76 120.2 460.04 127.75 462.32 135.29 464.51 142.84 466.69 150.39 468.78 157.93 470.87 165.48 472.85 173.03 474.82 180.58 476.68 188.12 478.54 195.67 480.27 203.22 482 210.76 483.6 218.31 485.19" stroke="#4000ff" stroke-width="4"></path><path d="M251.65 491.22Q259.39 492.37 267.14 493.52 274.88 494.5 282.63 495.48 290.37 496.29 298.11 497.1 305.86 497.73 313.6 498.37 321.35 498.82 329.09 499.27" stroke="#4000ff" stroke-width="4"></path><path d="M351.48 499.94Q359.95 499.95 368.42 499.95 376.88 499.73 385.35 499.51 393.82 499.08 402.29 498.64 410.76 497.99 419.23 497.34 427.7 496.48 436.16 495.62 444.63 494.56 453.1 493.49" stroke="rgba(0, 1, 7, 1)" stroke-width="4"></path><path d="M486.75 488.07Q494.28 486.62 501.8 485.17 509.33 483.58 516.85 481.98 524.38 480.26 531.9 478.53 539.43 476.68 546.96 474.83 554.48 472.85 562.01 470.88 569.53 468.8 577.06 466.72" stroke="rgba(0, 1, 7, 1)" stroke-width="4"></path><path d="M596 461.2Q604.36 458.65 612.71 456.1 621.07 453.45 629.43 450.8 637.78 448.07 646.14 445.34 654.5 442.54 662.85 439.74 671.21 436.89 679.56 434.04 687.92 431.15 696.28 428.27 704.63 425.36 712.99 422.45" stroke="rgba(0, 1, 7, 1)" stroke-width="4"></path><path d="M750.17 409.5Q758.97 406.47 767.77 403.45 776.56 400.47 785.36 397.49 794.16 394.58 802.96 391.67" stroke="#4000ff" stroke-width="4"></path><path d="M820.4 386.06Q822.98 385.25 825.56 384.44 828.14 383.64 830.73 382.84 833.31 382.04 835.89 381.25" stroke="#4000ff" stroke-width="4"></path><path d="M858.22 374.62Q866.38 372.34 874.54 370.05 882.69 367.89 890.85 365.73 899.01 363.71 907.16 361.69 915.32 359.82 923.48 357.94 931.64 356.23 939.8 354.51 947.95 352.96 956.11 351.41 964.27 350.03 972.42 348.65 980.58 347.46 988.74 346.26 996.9 345.25 1005.06 344.24 1013.21 343.42 1021.37 342.6" stroke="rgba(0, 1, 7, 1)" stroke-width="4"></path><path d="M1059.95 340.31Q1063.91 340.21 1067.88 340.11 1071.85 340.06 1075.81 340.01 1079.78 340.01 1083.74 340.01" stroke="#4000ff" stroke-width="4"></path><path d="M1097.61 340.24Q1105.27 340.53 1112.93 340.82 1120.59 341.3 1128.25 341.77 1135.91 342.41 1143.57 343.06 1151.22 343.87 1158.88 344.69 1166.54 345.68 1174.2 346.66 1181.86 347.81 1189.52 348.96 1197.18 350.27 1204.84 351.58 1212.5 353.04 1220.16 354.5 1227.82 356.11 1235.48 357.71 1243.14 359.46 1250.79 361.21 1258.45 363.08 1266.11 364.96 1273.77 366.96 1281.43 368.96 1289.09 371.08 1296.75 373.19" stroke="#4000ff" stroke-width="4"></path><path d="M1322.23 380.68Q1330.59 383.27 1338.95 385.86 1347.31 388.54 1355.66 391.22 1364.02 393.98 1372.38 396.74" stroke="#4000ff" stroke-width="4"></path><path d="M1384.68 400.88Q1390.48 402.85 1396.28 404.83 1402.08 406.83 1407.87 408.82 1413.67 410.83 1419.47 412.84" stroke="rgba(0, 1, 7, 1)" stroke-width="4"></path><path d="M7.76 492.71Q15.62 495.44 23.48 498.18 31.34 500.9 39.2 503.62 47.06 506.3 54.92 508.99 62.78 511.63 70.64 514.27 78.5 516.85 86.36 519.44 94.22 521.95 102.08 524.47 109.94 526.9 117.8 529.33 125.66 531.67 133.52 534.02 141.38 536.25 149.24 538.49" stroke="#4000ff" stroke-width="4"></path><path d="M159.44 541.27Q160.66 541.6 161.88 541.92 163.1 542.25 164.33 542.57 165.55 542.89 166.77 543.21" stroke="#4000ff" stroke-width="4"></path><path d="M182.06 547.07Q190.02 548.95 197.98 550.83 205.94 552.56 213.9 554.29 221.86 555.86 229.83 557.44 237.79 558.85 245.75 560.26 253.71 561.51 261.67 562.75 269.63 563.82 277.59 564.88 285.55 565.77 293.51 566.66 301.47 567.36 309.44 568.06 317.4 568.57 325.36 569.09 333.32 569.41 341.28 569.73" stroke="rgba(0, 1, 7, 1)" stroke-width="4"></path><path d="M364.52 569.98Q373.01 569.82 381.51 569.65 390 569.26 398.5 568.87 406.99 568.27 415.48 567.67 423.98 566.85 432.47 566.03" stroke="rgba(0, 1, 7, 1)" stroke-width="4"></path><path d="M472.37 560.58Q480.61 559.13 488.84 557.69 497.08 556.07 505.32 554.45 513.55 552.67 521.79 550.88 530.03 548.94 538.26 547 546.5 544.91 554.74 542.82 562.97 540.59 571.21 538.37" stroke="#4000ff" stroke-width="4"></path><path d="M599.59 530.12Q607.4 527.72 615.2 525.32 623.01 522.83 630.82 520.35 638.63 517.8 646.43 515.24 654.24 512.63 662.05 510.01 669.86 507.35 677.66 504.69 685.47 502 693.28 499.31 701.09 496.59 708.89 493.87 716.7 491.15 724.51 488.43 732.32 485.7 740.12 482.98 747.93 480.28 755.74 477.57 763.55 474.9 771.35 472.22 779.16 469.59 786.97 466.95" stroke="#4000ff" stroke-width="4"></path><path d="M826.69 454.09Q834.21 451.78 841.73 449.48 849.26 447.26 856.78 445.04 864.3 442.92 871.82 440.8 879.34 438.78 886.87 436.76 894.39 434.86 901.91 432.96 909.43 431.18 916.95 429.41 924.47 427.76 932 426.11 939.52 424.6 947.04 423.09" stroke="rgba(0, 1, 7, 1)" stroke-width="4"></path><path d="M965.74 419.74Q973.66 418.5 981.57 417.26 989.49 416.2 997.41 415.14 1005.33 414.25 1013.24 413.37 1021.16 412.67 1029.08 411.97 1036.99 411.45 1044.91 410.94 1052.83 410.61 1060.75 410.28 1068.66 410.15 1076.58 410.01 1084.5 410.06 1092.42 410.12 1100.33 410.36 1108.25 410.61" stroke="#4000ff" stroke-width="4"></path><path d="M1126.53 411.64Q1135.1 412.36 1143.67 413.07 1152.24 413.99 1160.8 414.92 1169.37 416.06 1177.94 417.19" stroke="rgba(0, 1, 7, 1)" stroke-width="4"></path><path d="M1204.17 421.46Q1212.36 423.02 1220.56 424.58 1228.75 426.31 1236.94 428.04 1245.14 429.92 1253.33 431.81" stroke="rgba(0, 1, 7, 1)" stroke-width="4"></path><path d="M1264.88 434.65Q1269.87 435.93 1274.86 437.22 1279.86 438.55 1284.85 439.88 1289.84 441.27 1294.83 442.65" stroke="rgba(0, 1, 7, 1)" stroke-width="4"></path><path d="M1309.9 446.99Q1318.72 449.64 1327.53 452.3 1336.35 455.07 1345.16 457.83 1353.98 460.7 1362.8 463.56 1371.61 466.5 1380.43 469.44" stroke="#4000ff" stroke-width="4"></path><path d="M1399.51 475.94Q1404.57 477.69 1409.63 479.43 1414.69 481.19 1419.76 482.94 1424.82 484.71 1429.88 486.47 1434.94 488.23 1440 490" stroke="rgba(0, 1, 7, 1)" stroke-width="4"></path></g><defs><clipPath id="SvgjsClipPath1056"><rect width="1440" height="560" x="0" y="0"></rect></clipPath></defs></svg>